<mxfile host="app.diagrams.net" modified="2024-02-07T19:42:00.663Z" agent="Mozilla/5.0 (Windows NT 10.0; Win64; x64) AppleWebKit/537.36 (KHTML, like Gecko) Chrome/121.0.0.0 Safari/537.36" etag="E94ASJKfEjje3HRHrQFb" version="23.1.2" type="device">
  <diagram name="PÃ¡gina-1" id="4tEYT7AZ6MiVWFtFd2NR">
    <mxGraphModel dx="2487" dy="868" grid="0" gridSize="10" guides="1" tooltips="1" connect="1" arrows="1" fold="1" page="0" pageScale="1" pageWidth="827" pageHeight="1169" math="0" shadow="0">
      <root>
        <mxCell id="0" />
        <mxCell id="1" parent="0" />
        <mxCell id="ke7tj6UbHf_71cCuD6pa-11" value="" style="fontColor=#0066CC;verticalAlign=top;verticalLabelPosition=bottom;labelPosition=center;align=center;html=1;outlineConnect=0;fillColor=#666666;strokeColor=#999999;gradientColor=none;gradientDirection=north;strokeWidth=2;shape=mxgraph.networks.switch;fillStyle=solid;" parent="1" vertex="1">
          <mxGeometry x="-245" y="491" width="60" height="17" as="geometry" />
        </mxCell>
        <mxCell id="ke7tj6UbHf_71cCuD6pa-18" value="" style="outlineConnect=0;dashed=0;verticalLabelPosition=bottom;verticalAlign=top;align=center;html=1;shape=mxgraph.aws3.internet_2;fillColor=#666666;gradientColor=none;" parent="1" vertex="1">
          <mxGeometry x="-514" y="444.75" width="110" height="74.5" as="geometry" />
        </mxCell>
        <mxCell id="ke7tj6UbHf_71cCuD6pa-19" value="Internet" style="text;html=1;strokeColor=none;fillColor=none;align=center;verticalAlign=middle;whiteSpace=wrap;rounded=0;" parent="1" vertex="1">
          <mxGeometry x="-489" y="519.25" width="60" height="30" as="geometry" />
        </mxCell>
        <mxCell id="ke7tj6UbHf_71cCuD6pa-20" value="Firewall" style="text;html=1;strokeColor=none;fillColor=none;align=center;verticalAlign=middle;whiteSpace=wrap;rounded=0;" parent="1" vertex="1">
          <mxGeometry x="-360" y="528.75" width="60" height="30" as="geometry" />
        </mxCell>
        <mxCell id="ke7tj6UbHf_71cCuD6pa-21" value="Switch" style="text;html=1;strokeColor=none;fillColor=none;align=center;verticalAlign=middle;whiteSpace=wrap;rounded=0;" parent="1" vertex="1">
          <mxGeometry x="-247" y="511" width="60" height="30" as="geometry" />
        </mxCell>
        <mxCell id="ke7tj6UbHf_71cCuD6pa-31" value="" style="endArrow=none;html=1;rounded=0;" parent="1" edge="1">
          <mxGeometry width="50" height="50" relative="1" as="geometry">
            <mxPoint x="-184" y="499.25" as="sourcePoint" />
            <mxPoint x="-134" y="499" as="targetPoint" />
          </mxGeometry>
        </mxCell>
        <mxCell id="ke7tj6UbHf_71cCuD6pa-32" value="" style="endArrow=none;html=1;rounded=0;" parent="1" edge="1" source="ke7tj6UbHf_71cCuD6pa-16">
          <mxGeometry width="50" height="50" relative="1" as="geometry">
            <mxPoint x="-315" y="499.15999999999997" as="sourcePoint" />
            <mxPoint x="-265" y="498.90999999999997" as="targetPoint" />
            <Array as="points">
              <mxPoint x="-247" y="499" />
            </Array>
          </mxGeometry>
        </mxCell>
        <mxCell id="ke7tj6UbHf_71cCuD6pa-34" value="" style="endArrow=none;html=1;rounded=0;" parent="1" edge="1">
          <mxGeometry width="50" height="50" relative="1" as="geometry">
            <mxPoint x="-405" y="499.15999999999997" as="sourcePoint" />
            <mxPoint x="-355" y="498.90999999999997" as="targetPoint" />
          </mxGeometry>
        </mxCell>
        <mxCell id="UAPGCNf8BomLPdziFhIS-16" value="Security Test Lab" style="swimlane;whiteSpace=wrap;html=1;" parent="1" vertex="1">
          <mxGeometry x="-134" y="189" width="1140" height="640" as="geometry" />
        </mxCell>
        <mxCell id="UAPGCNf8BomLPdziFhIS-1" value="Container 1" style="swimlane;whiteSpace=wrap;html=1;" parent="UAPGCNf8BomLPdziFhIS-16" vertex="1">
          <mxGeometry x="50" y="138" width="150" height="140" as="geometry" />
        </mxCell>
        <mxCell id="UAPGCNf8BomLPdziFhIS-2" value="Wordpress&lt;br style=&quot;&quot;&gt;&lt;span style=&quot;&quot;&gt;80/tcp 8080/tcp&lt;/span&gt;" style="text;html=1;align=center;verticalAlign=middle;resizable=0;points=[];autosize=1;strokeColor=none;fillColor=none;" parent="UAPGCNf8BomLPdziFhIS-1" vertex="1">
          <mxGeometry x="20" y="45" width="110" height="40" as="geometry" />
        </mxCell>
        <mxCell id="UAPGCNf8BomLPdziFhIS-5" value="Container 2" style="swimlane;whiteSpace=wrap;html=1;" parent="UAPGCNf8BomLPdziFhIS-16" vertex="1">
          <mxGeometry x="220" y="138" width="150" height="140" as="geometry" />
        </mxCell>
        <mxCell id="ke7tj6UbHf_71cCuD6pa-23" value="MySQL&lt;br&gt;3306/tcp 33060/tcp" style="text;html=1;strokeColor=none;fillColor=none;align=center;verticalAlign=middle;whiteSpace=wrap;rounded=0;" parent="UAPGCNf8BomLPdziFhIS-5" vertex="1">
          <mxGeometry x="45" y="56.5" width="60" height="30" as="geometry" />
        </mxCell>
        <mxCell id="UAPGCNf8BomLPdziFhIS-9" value="Container 3" style="swimlane;whiteSpace=wrap;html=1;" parent="UAPGCNf8BomLPdziFhIS-16" vertex="1">
          <mxGeometry x="390" y="138" width="150" height="140" as="geometry" />
        </mxCell>
        <mxCell id="ke7tj6UbHf_71cCuD6pa-24" value="Ubuntu Web Server&lt;br&gt;80/tcp" style="text;html=1;strokeColor=none;fillColor=none;align=center;verticalAlign=middle;whiteSpace=wrap;rounded=0;" parent="UAPGCNf8BomLPdziFhIS-9" vertex="1">
          <mxGeometry x="20" y="55" width="110" height="30" as="geometry" />
        </mxCell>
        <mxCell id="UAPGCNf8BomLPdziFhIS-11" value="Container 4" style="swimlane;whiteSpace=wrap;html=1;" parent="UAPGCNf8BomLPdziFhIS-16" vertex="1">
          <mxGeometry x="560" y="138" width="150" height="140" as="geometry">
            <mxRectangle x="560" y="138" width="101" height="26" as="alternateBounds" />
          </mxGeometry>
        </mxCell>
        <mxCell id="ke7tj6UbHf_71cCuD6pa-25" value="NGinx Web Server&lt;br&gt;80/tcp" style="text;html=1;strokeColor=none;fillColor=none;align=center;verticalAlign=middle;whiteSpace=wrap;rounded=0;" parent="UAPGCNf8BomLPdziFhIS-11" vertex="1">
          <mxGeometry x="20" y="55" width="110" height="30" as="geometry" />
        </mxCell>
        <mxCell id="UAPGCNf8BomLPdziFhIS-14" value="" style="pointerEvents=1;shadow=0;dashed=0;html=1;strokeColor=none;fillColor=#505050;labelPosition=center;verticalLabelPosition=bottom;verticalAlign=top;outlineConnect=0;align=center;shape=mxgraph.office.servers.server_generic;" parent="UAPGCNf8BomLPdziFhIS-16" vertex="1">
          <mxGeometry x="540" y="360" width="27" height="52" as="geometry" />
        </mxCell>
        <mxCell id="UAPGCNf8BomLPdziFhIS-17" value="" style="endArrow=none;html=1;rounded=0;" parent="UAPGCNf8BomLPdziFhIS-16" edge="1">
          <mxGeometry width="50" height="50" relative="1" as="geometry">
            <mxPoint x="120" y="318" as="sourcePoint" />
            <mxPoint x="975" y="318" as="targetPoint" />
          </mxGeometry>
        </mxCell>
        <mxCell id="UAPGCNf8BomLPdziFhIS-15" value="VM -&amp;gt; Kernel Linux / Terraform / Docker" style="text;html=1;align=center;verticalAlign=middle;resizable=0;points=[];autosize=1;strokeColor=none;fillColor=none;" parent="UAPGCNf8BomLPdziFhIS-16" vertex="1">
          <mxGeometry x="436" y="420" width="230" height="26" as="geometry" />
        </mxCell>
        <mxCell id="UAPGCNf8BomLPdziFhIS-18" value="" style="endArrow=none;html=1;rounded=0;" parent="UAPGCNf8BomLPdziFhIS-16" edge="1">
          <mxGeometry width="50" height="50" relative="1" as="geometry">
            <mxPoint x="120" y="318" as="sourcePoint" />
            <mxPoint x="120" y="278" as="targetPoint" />
          </mxGeometry>
        </mxCell>
        <mxCell id="UAPGCNf8BomLPdziFhIS-21" value="" style="endArrow=none;html=1;rounded=0;" parent="UAPGCNf8BomLPdziFhIS-16" edge="1">
          <mxGeometry width="50" height="50" relative="1" as="geometry">
            <mxPoint x="640" y="318" as="sourcePoint" />
            <mxPoint x="640" y="278" as="targetPoint" />
          </mxGeometry>
        </mxCell>
        <mxCell id="UAPGCNf8BomLPdziFhIS-20" value="" style="endArrow=none;html=1;rounded=0;" parent="UAPGCNf8BomLPdziFhIS-16" edge="1">
          <mxGeometry width="50" height="50" relative="1" as="geometry">
            <mxPoint x="470" y="318" as="sourcePoint" />
            <mxPoint x="470" y="278" as="targetPoint" />
          </mxGeometry>
        </mxCell>
        <mxCell id="UAPGCNf8BomLPdziFhIS-19" value="" style="endArrow=none;html=1;rounded=0;" parent="UAPGCNf8BomLPdziFhIS-16" edge="1">
          <mxGeometry width="50" height="50" relative="1" as="geometry">
            <mxPoint x="297" y="318" as="sourcePoint" />
            <mxPoint x="297" y="279" as="targetPoint" />
          </mxGeometry>
        </mxCell>
        <mxCell id="UAPGCNf8BomLPdziFhIS-22" value="" style="endArrow=none;html=1;rounded=0;" parent="UAPGCNf8BomLPdziFhIS-16" edge="1">
          <mxGeometry width="50" height="50" relative="1" as="geometry">
            <mxPoint x="552" y="359" as="sourcePoint" />
            <mxPoint x="552" y="319" as="targetPoint" />
          </mxGeometry>
        </mxCell>
        <mxCell id="jVKInmBASNfz2UgVp5Zh-1" value="Container 5" style="swimlane;whiteSpace=wrap;html=1;" vertex="1" parent="UAPGCNf8BomLPdziFhIS-16">
          <mxGeometry x="732" y="138" width="150" height="140" as="geometry">
            <mxRectangle x="560" y="138" width="101" height="26" as="alternateBounds" />
          </mxGeometry>
        </mxCell>
        <mxCell id="jVKInmBASNfz2UgVp5Zh-2" value="Kali Linux 1&amp;nbsp;" style="text;html=1;strokeColor=none;fillColor=none;align=center;verticalAlign=middle;whiteSpace=wrap;rounded=0;" vertex="1" parent="jVKInmBASNfz2UgVp5Zh-1">
          <mxGeometry x="20" y="55" width="110" height="30" as="geometry" />
        </mxCell>
        <mxCell id="jVKInmBASNfz2UgVp5Zh-3" value="Container 6" style="swimlane;whiteSpace=wrap;html=1;" vertex="1" parent="UAPGCNf8BomLPdziFhIS-16">
          <mxGeometry x="903" y="138" width="150" height="140" as="geometry">
            <mxRectangle x="560" y="138" width="101" height="26" as="alternateBounds" />
          </mxGeometry>
        </mxCell>
        <mxCell id="jVKInmBASNfz2UgVp5Zh-4" value="Kali Linux 2" style="text;html=1;strokeColor=none;fillColor=none;align=center;verticalAlign=middle;whiteSpace=wrap;rounded=0;" vertex="1" parent="jVKInmBASNfz2UgVp5Zh-3">
          <mxGeometry x="20" y="55" width="110" height="30" as="geometry" />
        </mxCell>
        <mxCell id="jVKInmBASNfz2UgVp5Zh-8" value="" style="endArrow=none;html=1;rounded=0;" edge="1" parent="UAPGCNf8BomLPdziFhIS-16">
          <mxGeometry width="50" height="50" relative="1" as="geometry">
            <mxPoint x="812" y="318" as="sourcePoint" />
            <mxPoint x="812" y="278" as="targetPoint" />
          </mxGeometry>
        </mxCell>
        <mxCell id="jVKInmBASNfz2UgVp5Zh-10" value="" style="endArrow=none;html=1;rounded=0;" edge="1" parent="UAPGCNf8BomLPdziFhIS-16">
          <mxGeometry width="50" height="50" relative="1" as="geometry">
            <mxPoint x="975" y="318" as="sourcePoint" />
            <mxPoint x="975" y="278" as="targetPoint" />
          </mxGeometry>
        </mxCell>
        <mxCell id="jVKInmBASNfz2UgVp5Zh-11" value="&lt;b&gt;&lt;font style=&quot;font-size: 20px;&quot;&gt;Hypervisor&lt;/font&gt;&lt;/b&gt;" style="rounded=1;whiteSpace=wrap;html=1;" vertex="1" parent="UAPGCNf8BomLPdziFhIS-16">
          <mxGeometry x="69" y="461" width="976" height="60" as="geometry" />
        </mxCell>
        <mxCell id="jVKInmBASNfz2UgVp5Zh-12" value="&lt;font style=&quot;font-size: 20px;&quot;&gt;&lt;b&gt;HARDWARE&lt;/b&gt;&lt;/font&gt;" style="rounded=1;whiteSpace=wrap;html=1;" vertex="1" parent="UAPGCNf8BomLPdziFhIS-16">
          <mxGeometry x="47" y="531" width="1019" height="60" as="geometry" />
        </mxCell>
        <mxCell id="jVKInmBASNfz2UgVp5Zh-16" value="" style="endArrow=none;html=1;rounded=0;" edge="1" parent="1" target="ke7tj6UbHf_71cCuD6pa-16">
          <mxGeometry width="50" height="50" relative="1" as="geometry">
            <mxPoint x="-315" y="499.15999999999997" as="sourcePoint" />
            <mxPoint x="-265" y="498.90999999999997" as="targetPoint" />
            <Array as="points">
              <mxPoint x="-265" y="499" />
            </Array>
          </mxGeometry>
        </mxCell>
        <mxCell id="ke7tj6UbHf_71cCuD6pa-16" value="" style="pointerEvents=1;shadow=0;dashed=0;html=1;strokeColor=none;fillColor=#666666;labelPosition=center;verticalLabelPosition=bottom;verticalAlign=top;outlineConnect=0;align=center;shape=mxgraph.office.concepts.firewall;" parent="1" vertex="1">
          <mxGeometry x="-355" y="470.25" width="50" height="58.5" as="geometry" />
        </mxCell>
      </root>
    </mxGraphModel>
  </diagram>
</mxfile>
